<svg width="24" height="24" viewBox="0 0 24 24" fill="none" xmlns="http://www.w3.org/2000/svg">
<path d="M7.19844 11.9996C7.19844 13.3251 6.12392 14.3996 4.79844 14.3996C3.47295 14.3996 2.39844 13.3251 2.39844 11.9996C2.39844 10.6741 3.47295 9.59961 4.79844 9.59961C6.12392 9.59961 7.19844 10.6741 7.19844 11.9996Z" fill="#979797"/>
<path d="M14.3984 11.9996C14.3984 13.3251 13.3239 14.3996 11.9984 14.3996C10.673 14.3996 9.59844 13.3251 9.59844 11.9996C9.59844 10.6741 10.673 9.59961 11.9984 9.59961C13.3239 9.59961 14.3984 10.6741 14.3984 11.9996Z" fill="#979797"/>
<path d="M21.5984 11.9996C21.5984 13.3251 20.5239 14.3996 19.1984 14.3996C17.873 14.3996 16.7984 13.3251 16.7984 11.9996C16.7984 10.6741 17.873 9.59961 19.1984 9.59961C20.5239 9.59961 21.5984 10.6741 21.5984 11.9996Z" fill="#979797"/>
</svg>
