<svg width="390" height="144" viewBox="0 0 390 144" fill="none" xmlns="http://www.w3.org/2000/svg">
<g filter="url(#filter0_d_485_1075)">
<path d="M8.32004 60H151.252C155.518 60 158.948 63.379 159.865 67.5457C163.638 84.6812 177.178 96 194.505 96C212.016 96 226.241 86.199 229.975 67.5991C230.818 63.402 234.253 60 238.534 60H381.68C386.275 60 390 64.4573 390 69.9556L390 144H0L3.71933e-05 69.9556C3.71933e-05 64.4573 3.72503 60 8.32004 60Z" fill="#1F1F1F"/>
<rect x="165" y="30" width="60" height="60" rx="30" fill="#D3FD51"/>
<path d="M195 53L195 67M202 60L188 60" stroke="#1A1A1A" stroke-width="2" stroke-linecap="round"/>
<path d="M66.207 116H65.1133V108.954H69.4248V109.901H66.207V116ZM71.251 113.793C71.2152 114.294 71.137 114.713 71.0166 115.048C70.8962 115.383 70.7269 115.634 70.5088 115.8C70.2907 115.966 70.0156 116.049 69.6836 116.049C69.5794 116.049 69.4915 116.042 69.4199 116.029C69.3483 116.016 69.293 116.003 69.2539 115.99V115.062C69.2799 115.069 69.3223 115.077 69.3809 115.087C69.4395 115.093 69.5013 115.097 69.5664 115.097C69.7324 115.097 69.8643 115.035 69.9619 114.911C70.0628 114.787 70.1377 114.621 70.1865 114.413C70.2386 114.201 70.2712 113.967 70.2842 113.71L70.4893 110.697H74.1562V116H73.0918V111.537H71.417L71.251 113.793ZM77.2275 116.088C76.8923 116.088 76.5911 116.024 76.3242 115.897C76.0605 115.767 75.8522 115.583 75.6992 115.346C75.5462 115.108 75.4697 114.83 75.4697 114.511V114.501C75.4697 114.026 75.6406 113.655 75.9824 113.388C76.3275 113.118 76.8158 112.963 77.4473 112.924L79.4053 112.807V113.554L77.5938 113.671C77.2292 113.694 76.9606 113.772 76.7881 113.905C76.6156 114.035 76.5293 114.219 76.5293 114.457V114.467C76.5293 114.708 76.6221 114.898 76.8076 115.038C76.9932 115.175 77.2275 115.243 77.5107 115.243C77.7744 115.243 78.0088 115.191 78.2139 115.087C78.4222 114.979 78.585 114.836 78.7021 114.657C78.8193 114.475 78.8779 114.27 78.8779 114.042V112.372C78.8779 112.079 78.7868 111.856 78.6045 111.703C78.4255 111.547 78.1585 111.469 77.8037 111.469C77.5075 111.469 77.265 111.521 77.0762 111.625C76.8906 111.729 76.7669 111.876 76.7051 112.064L76.6953 112.079H75.6748L75.6797 112.045C75.722 111.752 75.8376 111.498 76.0264 111.283C76.2184 111.065 76.4691 110.896 76.7783 110.775C77.0908 110.655 77.4473 110.595 77.8477 110.595C78.2936 110.595 78.6712 110.666 78.9805 110.81C79.293 110.95 79.529 111.153 79.6885 111.42C79.8512 111.684 79.9326 112.001 79.9326 112.372V116H78.8779V115.248H78.7998C78.6956 115.427 78.5654 115.58 78.4092 115.707C78.2529 115.831 78.0755 115.925 77.877 115.99C77.6784 116.055 77.4619 116.088 77.2275 116.088ZM81.5195 116V110.697H83.9219C84.4427 110.697 84.848 110.821 85.1377 111.068C85.4274 111.316 85.5723 111.646 85.5723 112.06V112.069C85.5723 112.34 85.4876 112.584 85.3184 112.802C85.1491 113.017 84.9342 113.15 84.6738 113.202V113.28C84.9049 113.31 85.1051 113.38 85.2744 113.49C85.4437 113.598 85.5739 113.736 85.665 113.905C85.7594 114.075 85.8066 114.265 85.8066 114.477V114.486C85.8066 114.939 85.6423 115.305 85.3135 115.585C84.9847 115.862 84.529 116 83.9463 116H81.5195ZM82.5742 115.219H83.8047C84.1107 115.219 84.3402 115.152 84.4932 115.019C84.6462 114.882 84.7227 114.691 84.7227 114.447V114.438C84.7227 114.18 84.6348 113.99 84.459 113.866C84.2865 113.743 84.0244 113.681 83.6729 113.681H82.5742V115.219ZM82.5742 112.914H83.5898C83.9056 112.914 84.14 112.852 84.293 112.729C84.446 112.605 84.5225 112.427 84.5225 112.196V112.187C84.5225 111.975 84.4557 111.804 84.3223 111.674C84.1921 111.544 83.9854 111.479 83.7021 111.479H82.5742V112.914ZM90.6553 116V113.676H88.2578V116H87.1934V110.697H88.2578V112.836H90.6553V110.697H91.7197V116H90.6553ZM94.7959 116.088C94.4606 116.088 94.1595 116.024 93.8926 115.897C93.6289 115.767 93.4206 115.583 93.2676 115.346C93.1146 115.108 93.0381 114.83 93.0381 114.511V114.501C93.0381 114.026 93.209 113.655 93.5508 113.388C93.8958 113.118 94.3841 112.963 95.0156 112.924L96.9736 112.807V113.554L95.1621 113.671C94.7975 113.694 94.529 113.772 94.3564 113.905C94.1839 114.035 94.0977 114.219 94.0977 114.457V114.467C94.0977 114.708 94.1904 114.898 94.376 115.038C94.5615 115.175 94.7959 115.243 95.0791 115.243C95.3428 115.243 95.5771 115.191 95.7822 115.087C95.9906 114.979 96.1533 114.836 96.2705 114.657C96.3877 114.475 96.4463 114.27 96.4463 114.042V112.372C96.4463 112.079 96.3551 111.856 96.1729 111.703C95.9938 111.547 95.7269 111.469 95.3721 111.469C95.0758 111.469 94.8333 111.521 94.6445 111.625C94.459 111.729 94.3353 111.876 94.2734 112.064L94.2637 112.079H93.2432L93.248 112.045C93.2904 111.752 93.4059 111.498 93.5947 111.283C93.7868 111.065 94.0374 110.896 94.3467 110.775C94.6592 110.655 95.0156 110.595 95.416 110.595C95.862 110.595 96.2396 110.666 96.5488 110.81C96.8613 110.95 97.0973 111.153 97.2568 111.42C97.4196 111.684 97.501 112.001 97.501 112.372V116H96.4463V115.248H96.3682C96.264 115.427 96.1338 115.58 95.9775 115.707C95.8213 115.831 95.6439 115.925 95.4453 115.99C95.2467 116.055 95.0303 116.088 94.7959 116.088ZM101.954 116V114.164H101.178L99.8887 116H98.6631L100.113 113.983C99.7454 113.879 99.4557 113.694 99.2441 113.427C99.0358 113.16 98.9316 112.846 98.9316 112.484V112.475C98.9316 112.107 99.0146 111.791 99.1807 111.527C99.3499 111.26 99.5859 111.055 99.8887 110.912C100.195 110.769 100.551 110.697 100.958 110.697H103.004V116H101.954ZM101.012 113.354H101.954V111.532H101.012C100.699 111.532 100.452 111.615 100.27 111.781C100.09 111.947 100.001 112.175 100.001 112.465V112.475C100.001 112.729 100.09 112.938 100.27 113.104C100.452 113.271 100.699 113.354 101.012 113.354Z" fill="#D3FD51"/>
<path d="M81 99V92.1528C81 91.5226 81.5373 91.0116 82.2 91.0116H85.8C86.4627 91.0116 87 91.5226 87 92.1528V99M83.3046 81.2112L75.5046 86.486C75.188 86.7001 75 87.0467 75 87.4161V97.2882C75 98.2336 75.8059 99 76.8 99H91.2C92.1941 99 93 98.2336 93 97.2882V87.4161C93 87.0467 92.812 86.7001 92.4954 86.486L84.6954 81.2112C84.2791 80.9296 83.7209 80.9296 83.3046 81.2112Z" stroke="#D3FD51" stroke-width="2" stroke-linecap="round"/>
<path d="M288.119 116L290.663 108.954H291.547V110.189H291.215L289.271 116H288.119ZM289.345 114.096L289.652 113.217H292.86L293.168 114.096H289.345ZM293.236 116L291.298 110.189V108.954H291.85L294.389 116H293.236ZM299.047 116V113.676H296.649V116H295.585V110.697H296.649V112.836H299.047V110.697H300.111V116H299.047ZM303.188 116.088C302.852 116.088 302.551 116.024 302.284 115.897C302.021 115.767 301.812 115.583 301.659 115.346C301.506 115.108 301.43 114.83 301.43 114.511V114.501C301.43 114.026 301.601 113.655 301.942 113.388C302.287 113.118 302.776 112.963 303.407 112.924L305.365 112.807V113.554L303.554 113.671C303.189 113.694 302.921 113.772 302.748 113.905C302.576 114.035 302.489 114.219 302.489 114.457V114.467C302.489 114.708 302.582 114.898 302.768 115.038C302.953 115.175 303.188 115.243 303.471 115.243C303.734 115.243 303.969 115.191 304.174 115.087C304.382 114.979 304.545 114.836 304.662 114.657C304.779 114.475 304.838 114.27 304.838 114.042V112.372C304.838 112.079 304.747 111.856 304.564 111.703C304.385 111.547 304.118 111.469 303.764 111.469C303.467 111.469 303.225 111.521 303.036 111.625C302.851 111.729 302.727 111.876 302.665 112.064L302.655 112.079H301.635L301.64 112.045C301.682 111.752 301.798 111.498 301.986 111.283C302.178 111.065 302.429 110.896 302.738 110.775C303.051 110.655 303.407 110.595 303.808 110.595C304.254 110.595 304.631 110.666 304.94 110.81C305.253 110.95 305.489 111.153 305.648 111.42C305.811 111.684 305.893 112.001 305.893 112.372V116H304.838V115.248H304.76C304.656 115.427 304.525 115.58 304.369 115.707C304.213 115.831 304.035 115.925 303.837 115.99C303.638 116.055 303.422 116.088 303.188 116.088ZM308.9 113.793C308.865 114.294 308.786 114.713 308.666 115.048C308.546 115.383 308.376 115.634 308.158 115.8C307.94 115.966 307.665 116.049 307.333 116.049C307.229 116.049 307.141 116.042 307.069 116.029C306.998 116.016 306.942 116.003 306.903 115.99V115.062C306.929 115.069 306.972 115.077 307.03 115.087C307.089 115.093 307.151 115.097 307.216 115.097C307.382 115.097 307.514 115.035 307.611 114.911C307.712 114.787 307.787 114.621 307.836 114.413C307.888 114.201 307.921 113.967 307.934 113.71L308.139 110.697H311.806V116H310.741V111.537H309.066L308.9 113.793ZM313.417 116V110.697H314.472V114.418H315.023L314.306 114.818L316.957 110.697H318.012V116H316.957V112.265H316.405L317.123 111.859L314.472 116H313.417ZM321.542 116.103C321.151 116.103 320.797 116.044 320.478 115.927C320.159 115.806 319.898 115.635 319.696 115.414C319.494 115.189 319.376 114.918 319.34 114.599L319.335 114.555H320.38L320.39 114.594C320.448 114.802 320.578 114.966 320.78 115.087C320.982 115.204 321.233 115.263 321.532 115.263C321.89 115.263 322.169 115.188 322.367 115.038C322.566 114.885 322.665 114.69 322.665 114.452V114.442C322.665 114.185 322.569 113.995 322.377 113.871C322.185 113.744 321.903 113.681 321.532 113.681H320.741V112.909H321.527C321.85 112.909 322.092 112.846 322.255 112.719C322.418 112.592 322.499 112.406 322.499 112.162V112.152C322.499 111.947 322.419 111.776 322.26 111.64C322.104 111.5 321.868 111.43 321.552 111.43C321.265 111.43 321.028 111.49 320.839 111.61C320.653 111.728 320.539 111.887 320.497 112.089L320.492 112.113H319.477L319.481 112.079C319.524 111.776 319.633 111.514 319.809 111.293C319.984 111.072 320.22 110.899 320.517 110.775C320.816 110.652 321.168 110.59 321.571 110.59C321.981 110.59 322.333 110.65 322.626 110.771C322.919 110.891 323.144 111.06 323.3 111.278C323.456 111.496 323.534 111.752 323.534 112.045V112.055C323.534 112.328 323.451 112.569 323.285 112.777C323.122 112.982 322.904 113.118 322.631 113.183V113.266C322.872 113.314 323.072 113.393 323.231 113.5C323.394 113.607 323.515 113.741 323.593 113.9C323.674 114.057 323.715 114.234 323.715 114.433V114.442C323.715 114.771 323.625 115.061 323.446 115.312C323.267 115.559 323.015 115.753 322.689 115.893C322.364 116.033 321.981 116.103 321.542 116.103Z" fill="white"/>
<path d="M298.798 99.6004H313.198C314.524 99.6004 315.598 98.5259 315.598 97.2004V82.8004C315.598 81.4749 314.524 80.4004 313.198 80.4004H298.798C297.473 80.4004 296.398 81.4749 296.398 82.8004V97.2004C296.398 98.5259 297.473 99.6004 298.798 99.6004Z" fill="#262525"/>
<path d="M310.798 94.8004V88.8004M305.998 94.8004V85.2004M301.198 94.8004V92.4004M298.798 99.6004C297.473 99.6004 296.398 98.5259 296.398 97.2004V82.8004C296.398 81.4749 297.473 80.4004 298.798 80.4004H313.198C314.524 80.4004 315.598 81.4749 315.598 82.8004V97.2004C315.598 98.5259 314.524 99.6004 313.198 99.6004H298.798Z" stroke="white" stroke-width="2" stroke-linecap="round" stroke-linejoin="round"/>
</g>
<defs>
<filter id="filter0_d_485_1075" x="-15" y="0" width="420" height="144" filterUnits="userSpaceOnUse" color-interpolation-filters="sRGB">
<feFlood flood-opacity="0" result="BackgroundImageFix"/>
<feColorMatrix in="SourceAlpha" type="matrix" values="0 0 0 0 0 0 0 0 0 0 0 0 0 0 0 0 0 0 127 0" result="hardAlpha"/>
<feOffset dy="-15"/>
<feGaussianBlur stdDeviation="7.5"/>
<feComposite in2="hardAlpha" operator="out"/>
<feColorMatrix type="matrix" values="0 0 0 0 0 0 0 0 0 0 0 0 0 0 0 0 0 0 0.15 0"/>
<feBlend mode="normal" in2="BackgroundImageFix" result="effect1_dropShadow_485_1075"/>
<feBlend mode="normal" in="SourceGraphic" in2="effect1_dropShadow_485_1075" result="shape"/>
</filter>
</defs>
</svg>
