<svg width="24" height="24" viewBox="0 0 24 24" fill="none" xmlns="http://www.w3.org/2000/svg">
<path d="M2.39844 2.24316C1.98422 2.24316 1.64844 2.57895 1.64844 2.99316C1.64844 3.40738 1.98422 3.74316 2.39844 3.74316V2.24316ZM4.69097 2.99316L5.41489 2.7971C5.32635 2.47018 5.02968 2.24316 4.69097 2.24316V2.99316ZM8.41635 16.7484L7.69243 16.9445C7.79013 17.3052 8.13852 17.539 8.50937 17.4926L8.41635 16.7484ZM19.879 15.3156L19.9721 16.0598C20.2906 16.0199 20.5484 15.7818 20.6135 15.4675L19.879 15.3156ZM21.5984 7.00511L22.3329 7.15706C22.3786 6.93617 22.3224 6.70645 22.18 6.53154C22.0376 6.35663 21.824 6.25511 21.5984 6.25511V7.00511ZM5.77754 7.00511L5.05362 7.20117L5.05362 7.20117L5.77754 7.00511ZM2.39844 3.74316H4.69097V2.24316H2.39844V3.74316ZM8.50937 17.4926L19.9721 16.0598L19.786 14.5713L8.32332 16.0042L8.50937 17.4926ZM20.6135 15.4675L22.3329 7.15706L20.864 6.85315L19.1446 15.1636L20.6135 15.4675ZM3.96705 3.18923L5.05362 7.20117L6.50146 6.80904L5.41489 2.7971L3.96705 3.18923ZM5.05362 7.20117L7.69243 16.9445L9.14027 16.5523L6.50146 6.80904L5.05362 7.20117ZM21.5984 6.25511H5.77754V7.75511H21.5984V6.25511ZM11.2484 20.5004C11.2484 20.9147 10.9127 21.2504 10.4984 21.2504V22.7504C11.7411 22.7504 12.7484 21.7431 12.7484 20.5004H11.2484ZM10.4984 21.2504C10.0842 21.2504 9.74844 20.9147 9.74844 20.5004H8.24844C8.24844 21.7431 9.2558 22.7504 10.4984 22.7504V21.2504ZM9.74844 20.5004C9.74844 20.0862 10.0842 19.7504 10.4984 19.7504V18.2504C9.2558 18.2504 8.24844 19.2578 8.24844 20.5004H9.74844ZM10.4984 19.7504C10.9127 19.7504 11.2484 20.0862 11.2484 20.5004H12.7484C12.7484 19.2578 11.7411 18.2504 10.4984 18.2504V19.7504ZM19.2484 20.5004C19.2484 20.9147 18.9127 21.2504 18.4984 21.2504V22.7504C19.7411 22.7504 20.7484 21.7431 20.7484 20.5004H19.2484ZM18.4984 21.2504C18.0842 21.2504 17.7484 20.9147 17.7484 20.5004H16.2484C16.2484 21.7431 17.2558 22.7504 18.4984 22.7504V21.2504ZM17.7484 20.5004C17.7484 20.0862 18.0842 19.7504 18.4984 19.7504V18.2504C17.2558 18.2504 16.2484 19.2578 16.2484 20.5004H17.7484ZM18.4984 19.7504C18.9127 19.7504 19.2484 20.0862 19.2484 20.5004H20.7484C20.7484 19.2578 19.7411 18.2504 18.4984 18.2504V19.7504Z" fill="black"/>
</svg>
